<svg width="160" height="160" viewBox="0 0 160 160" fill="none" xmlns="http://www.w3.org/2000/svg">
<path d="M140 65V125C140 127.652 138.946 130.196 137.071 132.071C135.196 133.946 132.652 135 130 135H30C27.3478 135 24.8043 133.946 22.9289 132.071C21.0536 130.196 20 127.652 20 125V65C20 62.3478 21.0536 59.8043 22.9289 57.9289C24.8043 56.0536 27.3478 55 30 55H130C132.652 55 135.196 56.0536 137.071 57.9289C138.946 59.8043 140 62.3478 140 65ZM35 45H125C126.326 45 127.598 44.4732 128.536 43.5355C129.473 42.5979 130 41.3261 130 40C130 38.6739 129.473 37.4021 128.536 36.4645C127.598 35.5268 126.326 35 125 35H35C33.6739 35 32.4021 35.5268 31.4645 36.4645C30.5268 37.4021 30 38.6739 30 40C30 41.3261 30.5268 42.5979 31.4645 43.5355C32.4021 44.4732 33.6739 45 35 45ZM45 25H115C116.326 25 117.598 24.4732 118.536 23.5355C119.473 22.5979 120 21.3261 120 20C120 18.6739 119.473 17.4021 118.536 16.4645C117.598 15.5268 116.326 15 115 15H45C43.6739 15 42.4021 15.5268 41.4645 16.4645C40.5268 17.4021 40 18.6739 40 20C40 21.3261 40.5268 22.5979 41.4645 23.5355C42.4021 24.4732 43.6739 25 45 25Z" fill="#A7D129"/>
</svg>
